<?xml version="1.0" standalone="no"?>
<!DOCTYPE svg PUBLIC "-//W3C//DTD SVG 20010904//EN"
 "http://www.w3.org/TR/2001/REC-SVG-20010904/DTD/svg10.dtd">
<svg version="1.0" xmlns="http://www.w3.org/2000/svg"
 width="512.000000pt" height="512.000000pt" viewBox="0 0 512.000000 512.000000"
 preserveAspectRatio="xMidYMid meet">
<metadata>
Created by potrace 1.14, written by Peter Selinger 2001-2017
</metadata>
<g transform="translate(0.000000,512.000000) scale(0.100000,-0.100000)"
fill="#000000" stroke="none">
<path d="M2381 4925 c-1 -5 6 -23 15 -40 29 -54 85 -197 80 -202 -2 -3 -14 14
-26 37 -32 63 -35 42 -4 -34 15 -36 25 -68 22 -71 -3 -3 -26 4 -53 16 -30 13
-84 24 -147 30 -141 12 -496 93 -522 120 -6 5 -17 9 -25 9 -28 -1 15 -27 164
-102 177 -89 267 -139 261 -145 -2 -3 -58 0 -123 6 -124 11 -218 36 -290 76
-24 13 -43 20 -43 17 0 -8 95 -93 153 -137 l39 -29 -149 -22 c-81 -12 -167
-27 -191 -33 -26 -7 -122 -12 -245 -12 -182 -1 -200 -2 -182 -16 29 -21 104
-58 147 -72 60 -20 53 -30 -10 -15 -72 17 -82 17 -82 0 0 -18 93 -64 245 -122
66 -25 123 -48 127 -52 4 -4 -43 -46 -105 -95 -134 -105 -220 -181 -192 -173
25 8 -139 -148 -178 -170 -77 -42 50 -11 172 42 29 13 60 24 67 24 8 0 -16
-40 -55 -92 -76 -101 -181 -265 -181 -281 0 -6 -10 -21 -22 -34 -12 -13 -19
-25 -16 -28 3 -3 45 42 92 100 48 58 89 105 92 105 5 0 -24 -56 -69 -130 -24
-39 -67 -83 -153 -153 -65 -54 -135 -108 -154 -120 -28 -18 -31 -22 -16 -25
22 -5 104 17 245 64 57 19 106 33 109 30 5 -6 -7 -24 -56 -85 -51 -62 -3 -50
70 17 15 14 30 23 32 21 3 -3 -13 -61 -34 -129 -22 -69 -43 -147 -46 -175 -3
-27 -13 -74 -21 -103 -24 -86 -7 -71 22 20 49 153 142 328 121 227 -4 -19 -11
-117 -15 -219 -6 -124 -14 -204 -26 -243 -38 -131 10 -66 75 100 52 134 70
156 70 86 0 -43 48 -234 62 -248 7 -7 9 15 4 67 -3 42 -2 79 3 82 12 8 50
-201 44 -246 -3 -20 -3 -43 -1 -50 8 -21 45 62 59 130 7 34 16 62 20 62 3 0 9
-21 13 -47 3 -26 21 -92 39 -147 l32 -99 5 174 5 174 23 -75 c12 -41 29 -93
37 -115 18 -49 181 -355 218 -410 48 -70 131 -182 178 -240 25 -31 60 -91 78
-134 19 -46 46 -91 64 -108 33 -30 93 -53 141 -53 30 0 98 42 162 101 29 26
54 39 85 44 24 3 51 9 61 11 29 8 99 -76 125 -153 13 -37 25 -81 26 -98 2 -16
8 -39 14 -50 6 -11 14 -27 16 -36 4 -11 15 -15 36 -14 30 2 31 0 31 -38 0 -25
-10 -57 -25 -83 -13 -23 -38 -81 -54 -129 -16 -47 -32 -89 -35 -92 -3 -4 -6
-38 -6 -77 -1 -40 -7 -82 -14 -95 -8 -14 -12 -30 -9 -37 2 -7 0 -21 -6 -32 -8
-15 -8 -21 1 -24 8 -3 -15 -59 -65 -159 -42 -85 -77 -159 -77 -164 0 -6 -25
-40 -54 -77 -43 -53 -57 -79 -66 -125 -6 -32 -14 -68 -17 -81 -5 -20 -1 -22
31 -22 29 0 36 4 36 20 0 42 26 113 44 124 11 6 70 44 130 85 203 136 509 304
631 348 32 11 45 11 70 1 43 -17 184 -123 370 -277 88 -73 168 -139 177 -146
19 -12 78 -121 78 -142 0 -10 97 -13 449 -13 l449 0 -5 43 c-3 23 -13 96 -24
162 -10 66 -19 136 -19 155 0 52 -136 398 -181 460 -15 21 -40 62 -54 91 -15
29 -62 112 -105 183 -43 72 -92 160 -110 196 -18 36 -48 86 -66 111 -23 32
-34 58 -34 81 0 25 -8 42 -30 63 -29 27 -29 30 -29 134 -1 160 -17 366 -33
398 -11 24 -20 28 -59 31 -44 3 -47 5 -60 44 l-13 40 -45 -5 c-26 -3 -75 -19
-111 -36 -36 -17 -70 -31 -77 -31 -19 0 -133 263 -119 277 2 3 25 -35 51 -83
68 -133 87 -165 92 -160 6 6 -19 87 -59 189 -17 43 -28 80 -26 82 3 3 19 -12
36 -34 33 -41 146 -131 165 -131 7 0 -4 11 -24 24 -37 25 -141 172 -202 286
-31 57 -37 79 -46 180 -6 63 -14 130 -17 148 -7 47 9 39 47 -20 41 -66 38 -62
44 -56 3 3 -8 34 -24 69 -16 35 -34 93 -40 129 -6 36 -14 77 -17 92 l-6 28 38
-16 c22 -9 65 -29 97 -45 63 -32 71 -26 28 23 -39 45 -123 178 -119 189 2 5
25 -10 51 -32 46 -40 75 -47 46 -12 -9 10 -37 56 -63 103 -27 47 -62 102 -79
123 -16 21 -28 39 -26 40 2 2 42 18 89 36 102 40 112 48 74 57 -16 4 -64 25
-106 47 -63 32 -87 51 -133 109 l-56 70 57 -32 c31 -17 64 -29 73 -27 12 3 9
7 -11 17 -15 7 -65 57 -112 111 l-85 98 48 35 c26 19 60 40 74 45 42 16 32 26
-29 28 -49 1 -78 12 -210 79 -85 42 -156 84 -159 93 -2 9 -11 52 -20 95 -8 43
-17 81 -20 84 -3 3 -5 -25 -5 -62 0 -37 -4 -66 -9 -64 -4 2 -31 30 -60 62 -59
68 -98 145 -137 272 -15 49 -31 93 -36 99 -5 6 -9 -54 -8 -150 0 -88 0 -164 0
-170 -1 -5 -19 26 -42 70 -45 87 -64 91 -24 5 14 -30 23 -56 21 -58 -3 -3 -21
10 -42 27 -21 18 -87 65 -148 104 -105 69 -306 252 -348 317 -9 14 -16 21 -16
15z m-31 -975 c0 -5 9 -10 19 -10 11 0 27 -7 35 -16 23 -22 69 -33 171 -41 91
-7 89 -20 -2 -22 -48 -1 -57 -17 -16 -27 25 -7 25 -8 8 -20 -17 -12 -10 -18
68 -54 48 -22 92 -40 97 -40 6 0 10 -4 10 -10 0 -6 -9 -6 -26 0 -33 13 -81 13
-89 0 -3 -5 -2 -10 2 -10 5 0 18 -7 29 -16 18 -15 18 -15 -9 -9 -49 10 -26
-14 36 -40 32 -12 64 -28 72 -35 26 -22 17 -33 -20 -26 -61 12 -60 -5 3 -44
32 -21 66 -48 75 -60 8 -12 30 -32 49 -45 18 -12 39 -35 47 -51 8 -16 24 -49
36 -74 38 -77 68 -171 59 -180 -12 -11 -130 -56 -219 -82 -38 -11 -87 -29
-107 -39 -55 -28 -57 -24 -12 24 37 39 56 87 33 87 -5 0 -9 -4 -9 -8 0 -5 -25
-42 -56 -83 -40 -53 -68 -79 -97 -93 -123 -55 -324 -136 -338 -136 -9 0 -42 9
-74 20 -71 24 -108 25 -141 4 -27 -18 -40 -12 -46 21 -5 28 -69 47 -143 43
-33 -2 -67 -6 -75 -8 -12 -4 -16 6 -18 43 -3 50 9 62 28 27 6 -11 15 -18 21
-14 6 4 6 11 -2 20 -6 8 -8 14 -3 15 20 3 60 -3 69 -10 6 -5 18 -11 28 -14 16
-6 16 -5 0 21 -25 40 -43 52 -80 52 -23 0 -33 -5 -33 -15 0 -8 -5 -15 -11 -15
-7 0 -9 17 -4 53 8 62 80 346 90 355 4 4 4 -50 0 -120 -5 -90 -4 -128 3 -128
6 0 16 19 22 43 6 23 19 60 29 82 11 22 22 56 26 75 7 35 95 200 106 200 4 0
3 -19 -3 -42 -5 -23 -7 -51 -5 -62 3 -17 5 -15 11 9 32 134 86 267 149 366
l68 108 55 12 c30 7 57 16 60 21 7 11 24 10 24 -2z m-1050 -54 c0 -2 -8 -10
-17 -17 -16 -13 -17 -12 -4 4 13 16 21 21 21 13z m2010 -517 c7 -12 9 -37 5
-59 -7 -40 -57 -120 -75 -120 -6 0 -10 32 -10 74 0 66 3 76 26 100 32 31 40
32 54 5z m95 -59 c85 -71 89 -86 70 -228 -8 -65 -20 -145 -25 -178 -6 -34 -10
-77 -10 -96 0 -41 -28 -71 -85 -91 -41 -14 -56 -40 -35 -61 9 -8 11 -6 5 11
-5 18 -3 22 9 17 10 -4 35 10 66 36 39 33 50 48 50 72 0 50 22 168 32 168 12
0 58 -100 57 -125 0 -16 -3 -14 -11 8 -5 15 -14 27 -20 27 -6 0 -7 -7 -3 -17
5 -10 9 -31 10 -48 1 -16 6 -42 10 -58 6 -23 4 -26 -9 -21 -21 8 -20 -9 1 -64
12 -33 14 -45 4 -51 -9 -6 -9 -15 0 -37 11 -28 53 -249 66 -346 10 -80 19 -54
16 45 -4 102 10 95 22 -13 4 -36 13 -95 20 -131 6 -36 10 -81 7 -100 -2 -19
-1 -31 3 -26 10 9 34 246 34 341 1 38 3 67 6 64 13 -13 105 -295 105 -322 0
-16 3 -27 6 -23 3 3 7 43 9 89 2 46 4 88 5 93 0 6 14 -30 31 -79 16 -49 28
-90 27 -91 -64 -38 -380 -285 -393 -305 -3 -5 -43 -27 -89 -48 -45 -22 -120
-63 -167 -93 -85 -54 -324 -232 -334 -249 -18 -30 -55 18 -55 71 0 10 -13 40
-30 66 -35 55 -35 53 -14 79 15 18 15 17 10 -13 -3 -18 -2 -33 3 -33 5 0 12
28 15 62 4 34 12 71 17 83 6 11 -15 -7 -46 -39 -62 -67 -74 -59 -17 12 l37 47
-63 -57 c-35 -32 -71 -58 -80 -58 -11 0 -3 11 23 33 45 36 99 88 76 71 -61
-42 -1 24 85 96 96 80 170 147 178 160 5 8 34 38 65 65 30 28 81 76 113 108
32 31 60 57 63 57 10 0 5 -38 -6 -42 -12 -4 2 -155 19 -218 8 -27 10 2 11 123
1 87 5 166 10 176 11 19 27 299 18 291 -3 -3 -8 -30 -12 -60 -9 -91 -16 -133
-27 -169 -8 -26 -7 -35 3 -42 11 -7 9 -13 -10 -31 l-23 -23 11 23 c21 40 2 23
-32 -30 -37 -57 -61 -81 -302 -294 -88 -78 -176 -156 -195 -174 -41 -37 -186
-140 -197 -140 -4 0 -34 -18 -66 -39 -63 -43 -125 -59 -169 -42 -37 14 -79 74
-83 118 -7 74 -22 144 -33 155 -18 18 -16 -34 3 -79 8 -19 15 -41 15 -47 -1
-20 -59 59 -60 80 0 32 -42 121 -94 202 -25 39 -46 76 -46 83 0 7 -13 35 -28
63 -16 28 -36 81 -45 118 -20 79 -57 181 -64 175 -2 -3 3 -21 11 -41 15 -36 5
-52 -12 -18 -15 28 -23 84 -11 77 6 -4 8 3 4 22 -24 108 -31 130 -47 149 -10
11 -18 27 -18 36 0 17 -26 32 -41 22 -5 -3 -7 -10 -4 -15 15 -24 -23 5 -40 31
-11 17 -26 30 -33 30 -30 0 43 -81 89 -98 29 -11 34 -25 79 -211 17 -68 39
-135 49 -150 16 -22 41 -73 134 -271 7 -14 33 -60 60 -103 47 -79 63 -123 27
-77 -112 142 -290 448 -290 498 0 11 -14 47 -30 81 -17 33 -37 94 -45 136 -16
84 -23 101 -36 88 -13 -13 17 -155 41 -196 18 -30 60 -133 60 -146 0 -2 -7 2
-15 9 -8 7 -15 18 -15 25 0 6 -13 31 -29 56 -19 28 -39 83 -56 154 -40 164
-46 188 -56 212 -11 29 -2 53 17 46 8 -3 14 0 14 7 0 10 3 10 15 0 13 -11 15
-6 15 34 0 42 3 48 32 66 56 34 136 24 182 -23 23 -23 17 -37 -32 -70 -28 -20
-57 -30 -98 -33 -83 -8 -87 -10 -74 -34 7 -13 21 -20 39 -20 38 0 118 45 158
88 18 20 35 34 37 31 2 -2 -2 -35 -9 -74 -15 -83 -26 -222 -14 -185 4 14 10
51 14 82 5 43 12 62 28 73 28 20 95 19 143 -1 75 -31 136 -16 344 85 211 103
296 139 360 152 123 26 188 43 213 56 28 14 28 14 48 -32 11 -26 23 -44 26
-41 5 5 -12 119 -24 161 -15 54 20 -14 77 -150 35 -82 68 -154 73 -160 5 -6 7
66 6 177 -3 181 2 232 14 168 6 -28 8 -29 27 -18 l21 13 -21 3 c-16 3 -20 10
-18 30 2 20 10 28 33 33 17 4 38 10 47 14 30 12 44 -35 23 -75 -23 -45 -12
-49 14 -4 19 32 21 41 10 66 -10 25 -17 29 -38 25 -14 -3 -43 -8 -63 -12 -34
-7 -38 -5 -38 13 0 26 17 37 55 34 29 -2 29 -1 8 10 -27 13 -27 16 -8 42 12
16 17 17 30 6 14 -12 15 -10 10 13 -9 33 11 36 43 7 24 -22 28 -19 12 10 -5
10 -23 23 -40 28 -20 8 -30 18 -30 31 0 12 4 21 8 21 4 0 35 -23 67 -50z
m-1745 -245 c0 -46 -3 -53 -16 -48 -12 5 -15 14 -10 42 3 20 6 42 6 49 0 6 5
12 10 12 6 0 10 -25 10 -55z m1853 -17 c6 -22 5 -22 -8 -4 -17 22 -20 40 -6
32 5 -3 11 -16 14 -28z m-19 -43 c3 -8 1 -15 -4 -15 -6 0 -10 7 -10 15 0 8 2
15 4 15 2 0 6 -7 10 -15z m-1821 -22 c14 -50 17 -73 9 -73 -11 0 -42 55 -42
74 0 22 27 20 33 -1z m-36 -57 c-2 -6 -9 -1 -16 12 -6 12 -9 28 -5 34 8 13 27
-28 21 -46z m33 -48 c0 7 5 12 10 12 6 0 10 -11 10 -25 0 -14 -4 -25 -9 -25
-5 0 -16 -3 -24 -6 -9 -3 -16 3 -19 18 -3 13 -9 32 -13 43 -7 18 -5 17 18 -4
15 -14 27 -19 27 -13z m-41 -151 c0 -21 -1 -21 -9 -2 -12 28 -12 37 0 30 6 -3
10 -16 9 -28z m2525 -589 c24 -33 20 -48 -13 -48 -64 0 -235 -109 -492 -314
-192 -154 -516 -485 -726 -742 l-32 -39 20 49 c33 76 68 130 174 271 138 184
187 240 274 319 42 38 96 87 121 110 64 59 263 215 343 270 89 60 259 141 309
145 4 1 14 -9 22 -21z m-251 -18 c3 -11 2 -18 -3 -15 -4 3 -10 14 -13 25 -3
11 -2 18 3 15 4 -3 10 -14 13 -25z m-1090 -475 c-3 -9 -8 -14 -10 -11 -3 3 -2
9 2 15 9 16 15 13 8 -4z m509 -1 c-12 -8 -30 -14 -40 -11 -14 3 -12 6 8 15 39
17 58 15 32 -4z m-61 -81 c-47 -52 -79 -78 -88 -69 -13 12 22 57 66 86 64 42
69 38 22 -17z m-112 -87 c9 -11 2 -21 -38 -50 -53 -39 -61 -42 -79 -24 -9 9
-6 18 15 40 15 15 35 28 44 28 10 0 21 5 24 10 9 14 20 12 34 -4z m-34 -76
c-3 -5 -16 -15 -28 -21 -21 -10 -21 -9 2 10 25 23 36 27 26 11z m-195 -24 c0
-2 -8 -10 -17 -17 -16 -13 -17 -12 -4 4 13 16 21 21 21 13z m168 -34 c-96
-131 -118 -149 -118 -98 0 16 17 38 56 70 58 47 85 60 62 28z m-118 -7 c0 -16
-46 -32 -58 -20 -8 8 26 35 45 35 7 0 13 -7 13 -15z m250 -308 c0 -1 -30 -32
-66 -67 -37 -36 -62 -56 -56 -45 16 31 122 129 122 112z m-162 -135 c-21 -29
-111 -142 -137 -171 -36 -41 47 78 97 137 42 50 67 71 40 34z m-38 3 c0 -2
-10 -10 -22 -16 -21 -11 -22 -11 -9 4 13 16 31 23 31 12z m-88 -78 c-29 -31
-28 -45 1 -21 13 12 11 5 -8 -16 -16 -19 -34 -39 -38 -45 -5 -5 -5 -1 -1 10 7
18 6 19 -11 5 -17 -14 -18 -14 -5 10 15 31 72 91 79 85 2 -3 -5 -15 -17 -28z
m68 -52 c-7 -8 -17 -15 -23 -15 -5 0 -2 9 8 20 21 23 35 19 15 -5z"/>
<path d="M2442 3440 c-18 -11 -37 -20 -43 -20 -17 0 -376 -221 -419 -257 -22
-19 -40 -40 -40 -48 0 -19 52 -26 70 -9 10 10 10 14 2 14 -27 0 -8 20 66 69
42 28 100 67 127 87 28 19 103 67 168 105 64 39 117 72 117 75 0 9 -16 3 -48
-16z"/>
<path d="M2505 3185 c-98 -15 -242 -59 -272 -83 -12 -10 -24 -34 -28 -59 -7
-43 1 -53 22 -32 9 9 14 5 19 -14 7 -31 25 -26 23 6 -5 58 2 87 24 102 41 26
337 68 337 48 0 -19 -109 -110 -170 -142 -33 -18 -78 -35 -102 -39 -23 -4 -43
-13 -46 -20 -6 -18 18 -15 108 13 72 23 88 34 158 99 44 40 91 81 105 91 35
23 34 30 -5 30 -18 0 -46 3 -63 6 -16 4 -66 1 -110 -6z"/>
<path d="M2130 3190 c-1 -3 -4 -24 -5 -48 -3 -45 -21 -76 -39 -69 -6 2 -20 1
-31 -4 -15 -6 -10 -8 21 -8 40 -1 42 0 54 43 9 35 10 104 0 86z"/>
<path d="M2480 3109 c0 -27 17 -41 39 -34 24 7 29 45 6 45 -8 0 -15 -5 -15
-11 0 -8 -5 -8 -15 1 -12 10 -15 10 -15 -1z"/>
<path d="M2720 3100 c-6 -11 -8 -20 -6 -20 3 0 10 9 16 20 6 11 8 20 6 20 -3
0 -10 -9 -16 -20z"/>
<path d="M2253 2943 c9 -2 23 -2 30 0 6 3 -1 5 -18 5 -16 0 -22 -2 -12 -5z"/>
<path d="M1810 2910 c14 -4 32 -8 40 -9 13 -1 13 0 0 9 -8 5 -26 9 -40 9 l-25
-1 25 -8z"/>
<path d="M1930 2875 c7 -9 15 -13 17 -11 7 7 -7 26 -19 26 -6 0 -6 -6 2 -15z"/>
<path d="M3437 3181 c4 -26 0 -46 -11 -63 -20 -31 -34 -172 -17 -182 8 -5 11
15 11 71 1 49 6 87 15 103 16 28 20 110 6 110 -5 0 -7 -17 -4 -39z"/>
<path d="M3310 3011 c0 -6 7 -11 15 -11 7 0 19 -8 25 -17 9 -16 10 -15 8 7 -2
17 -10 26 -25 28 -13 2 -23 -1 -23 -7z"/>
<path d="M3289 2986 c10 -12 12 -33 7 -78 -4 -42 -3 -59 4 -52 5 5 11 39 12
74 3 57 1 65 -17 68 -17 4 -18 2 -6 -12z"/>
<path d="M2985 2911 c-27 -6 -30 -10 -29 -43 2 -50 30 -94 50 -78 19 17 36 8
57 -29 17 -29 17 -32 1 -38 -10 -4 -20 0 -26 10 -8 16 -38 24 -38 11 0 -3 10
-19 21 -36 l21 -29 28 26 27 26 -35 95 c-19 51 -38 93 -41 93 -3 -1 -19 -4
-36 -8z m28 -38 c2 -10 8 -26 12 -35 5 -13 3 -18 -8 -18 -8 0 -17 8 -20 18 -2
9 -8 25 -12 35 -5 12 -3 17 8 17 8 0 17 -8 20 -17z"/>
<path d="M3347 2913 c-4 -3 -7 -11 -7 -17 0 -6 5 -5 12 2 6 6 9 14 7 17 -3 3
-9 2 -12 -2z"/>
<path d="M2878 2879 c-21 -11 -38 -23 -38 -28 0 -11 48 -129 68 -168 19 -38
29 -43 60 -32 22 8 31 42 13 53 -4 3 -11 19 -14 36 -6 26 -11 30 -40 30 -29 0
-36 5 -51 37 -17 36 -17 38 0 50 16 12 20 9 36 -22 17 -31 38 -47 38 -27 0 16
-21 82 -28 86 -4 2 -24 -5 -44 -15z m65 -171 c11 -27 14 -45 7 -52 -6 -6 -12
-3 -16 10 -4 10 -13 34 -20 52 -11 26 -11 32 0 32 7 0 20 -19 29 -42z"/>
<path d="M1840 2799 c0 -14 7 -19 25 -19 15 0 25 6 25 14 0 7 -11 16 -25 18
-19 4 -25 1 -25 -13z"/>
<path d="M1840 2652 c0 -17 30 -75 36 -69 3 3 -4 22 -15 44 -11 21 -20 32 -21
25z"/>
<path d="M1890 2526 c0 -14 5 -28 10 -31 6 -4 10 7 10 24 0 17 -4 31 -10 31
-5 0 -10 -11 -10 -24z"/>
<path d="M3451 2524 c0 -11 3 -14 6 -6 3 7 2 16 -1 19 -3 4 -6 -2 -5 -13z"/>
<path d="M1900 2373 c1 -21 29 -41 68 -48 23 -4 44 -11 47 -16 9 -14 96 -71
101 -66 3 2 -5 21 -17 41 -16 28 -31 39 -72 51 -28 8 -58 15 -67 15 -8 0 -26
7 -38 16 -12 8 -22 12 -22 7z"/>
<path d="M2178 2373 c12 -2 32 -2 45 0 12 2 2 4 -23 4 -25 0 -35 -2 -22 -4z"/>
<path d="M3465 2315 c0 -29 4 -57 8 -61 4 -4 7 18 7 49 0 31 -4 58 -8 61 -4 2
-8 -19 -7 -49z"/>
<path d="M1960 2284 c-1 -36 112 -289 160 -359 41 -60 50 -52 12 11 -59 101
-110 211 -122 262 -11 47 -49 113 -50 86z"/>
<path d="M2630 2103 c-248 -27 -455 -75 -455 -104 0 -23 32 -21 72 5 46 29 80
36 396 82 20 3 37 10 37 15 0 5 -3 8 -7 7 -5 0 -24 -3 -43 -5z"/>
<path d="M2218 2073 c7 -3 16 -2 19 1 4 3 -2 6 -13 5 -11 0 -14 -3 -6 -6z"/>
<path d="M2890 779 c0 -5 5 -7 10 -4 6 3 10 8 10 11 0 2 -4 4 -10 4 -5 0 -10
-5 -10 -11z"/>
<path d="M687 1035 c-21 -10 -34 -12 -47 -5 -30 16 -65 12 -89 -11 -24 -23
-23 -33 3 -23 9 3 16 12 16 20 0 15 12 17 48 7 27 -7 117 -138 106 -154 -5 -9
15 -7 68 7 9 3 23 -5 33 -18 51 -74 67 -98 93 -148 16 -30 35 -73 42 -95 15
-46 68 -155 75 -155 9 0 -7 55 -21 71 -8 8 -23 41 -34 73 -11 32 -40 96 -65
143 -27 49 -44 94 -42 107 3 18 6 16 17 -12 15 -41 23 -37 11 6 -5 18 -6 34
-1 37 5 3 12 -15 15 -40 5 -29 12 -45 21 -45 8 0 28 -29 44 -65 17 -36 37 -68
46 -72 8 -3 13 -12 10 -20 -4 -9 -2 -11 6 -7 8 5 9 0 5 -15 -3 -13 -3 -20 0
-17 4 3 14 -8 24 -24 11 -17 23 -30 29 -30 5 0 17 -16 25 -37 8 -20 18 -34 21
-31 7 8 -15 54 -86 177 -33 57 -62 113 -66 125 -4 12 -17 42 -30 69 -23 44
-27 47 -64 47 -27 0 -42 -5 -49 -17 -14 -25 -27 -9 -52 63 -37 105 -54 119
-112 89z m74 -43 c8 -19 8 -36 1 -55 -6 -16 -8 -35 -5 -43 3 -8 0 -14 -7 -14
-13 0 -10 27 5 64 6 14 5 17 -3 12 -8 -4 -10 -2 -6 8 6 16 -14 61 -23 52 -3
-3 0 -12 7 -21 7 -9 10 -18 6 -22 -3 -4 -12 0 -19 9 -6 9 -21 20 -32 26 -19
10 -19 11 5 20 32 12 58 -1 71 -36z"/>
<path d="M625 973 c5 -10 15 -48 23 -85 9 -38 18 -68 22 -68 9 0 -14 120 -29
148 -14 26 -27 30 -16 5z"/>
<path d="M536 911 c8 -27 21 -67 28 -89 8 -23 11 -42 6 -44 -10 -3 7 -87 21
-102 5 -5 6 8 2 30 -9 59 1 40 42 -81 21 -60 44 -119 51 -130 8 -11 14 -30 14
-42 0 -12 10 -48 21 -80 18 -46 20 -62 11 -85 -6 -16 -6 -28 -1 -28 5 0 9 -5
9 -11 0 -6 6 -16 13 -24 11 -10 18 -10 43 1 l29 13 -32 -6 c-18 -3 -33 -1 -33
4 0 12 39 48 60 56 13 5 13 6 -1 6 -9 1 -24 -8 -34 -19 -10 -11 -22 -17 -26
-14 -17 10 -9 20 31 43 47 26 54 39 9 16 -17 -9 -32 -15 -34 -13 -8 8 -55 136
-55 149 0 8 -11 41 -24 74 -36 90 -127 345 -138 388 -6 20 -14 37 -19 37 -4 0
-1 -22 7 -49z"/>
<path d="M501 834 c-12 -15 -21 -32 -21 -38 0 -6 7 -3 14 7 8 11 20 15 32 11
15 -4 16 -4 5 4 -8 6 -11 17 -8 26 9 23 1 20 -22 -10z"/>
<path d="M814 798 c36 -85 37 -86 30 -44 -6 40 -23 76 -36 76 -4 0 -1 -15 6
-32z"/>
<path d="M730 815 c0 -5 9 -32 20 -60 54 -140 80 -217 80 -238 0 -14 7 -40 15
-59 8 -20 17 -66 21 -104 3 -39 16 -91 29 -119 32 -69 85 -207 85 -222 0 -7 7
-13 15 -13 19 0 19 9 -1 35 -8 11 -24 51 -35 90 -11 38 -32 89 -45 112 -29 50
-30 62 -6 79 15 12 15 12 -7 7 -19 -5 -23 -3 -19 9 7 16 -10 107 -22 123 -4 6
-11 30 -15 55 -11 67 -72 251 -95 285 -11 17 -20 26 -20 20z"/>
<path d="M630 800 c-9 -6 -10 -10 -3 -10 6 0 15 5 18 10 8 12 4 12 -15 0z"/>
<path d="M489 718 c10 -24 26 -81 34 -127 l16 -84 -24 -29 c-38 -46 -41 -72
-12 -146 14 -37 30 -98 36 -137 29 -186 34 -206 45 -194 3 2 0 22 -5 44 -5 22
-16 87 -24 143 -13 85 -14 107 -3 120 11 13 11 15 -4 9 -26 -9 -55 83 -38 124
7 16 18 29 25 29 13 0 25 -51 25 -104 0 -16 3 -26 6 -23 4 3 6 30 5 58 -2 104
20 22 37 -141 5 -43 15 -76 30 -98 27 -38 28 -38 35 -12 3 11 1 18 -3 15 -16
-10 -43 43 -37 72 3 15 1 38 -5 52 -5 14 -13 55 -17 92 -6 46 -17 79 -37 109
-21 32 -31 64 -40 132 -12 84 -33 138 -54 138 -5 0 -1 -19 9 -42z"/>
<path d="M966 685 c21 -51 28 -58 19 -20 -4 17 -14 37 -22 45 -11 12 -10 6 3
-25z"/>
<path d="M1184 475 c-10 -8 -14 -15 -8 -15 6 0 17 7 24 15 16 19 9 19 -16 0z"/>
<path d="M1233 479 c10 -6 17 -22 17 -42 1 -18 7 -45 15 -62 16 -37 19 -20 4
24 -6 18 -9 34 -6 38 9 8 59 -98 53 -113 -3 -7 2 -18 12 -23 9 -5 40 -43 67
-85 28 -42 57 -76 65 -76 11 -1 10 -4 -5 -16 -19 -15 -18 -16 13 -9 22 4 32 3
32 -5 0 -7 -6 -10 -14 -7 -8 3 -20 -1 -26 -9 -9 -10 -9 -14 -1 -14 6 0 16 -11
23 -24 6 -14 17 -27 25 -30 11 -4 11 -1 3 15 -22 41 -3 42 21 1 13 -23 31 -42
40 -42 30 0 -43 123 -85 143 -39 18 -83 81 -158 226 -58 113 -64 121 -92 121
-19 -1 -19 -2 -3 -11z"/>
<path d="M1080 447 c0 -10 11 -17 31 -19 31 -3 44 -19 78 -98 11 -24 11 -24 6
5 -5 29 -5 29 11 10 19 -23 104 -197 104 -213 0 -6 11 -19 25 -30 13 -11 29
-31 35 -46 13 -35 34 -35 25 1 -6 25 -30 52 -48 53 -8 0 -15 15 -88 184 -41
94 -73 138 -94 130 -7 -3 -15 2 -18 10 -4 9 -13 13 -22 10 -8 -4 -22 -1 -30 6
-12 10 -15 10 -15 -3z"/>
<path d="M1025 368 c11 -72 46 -182 65 -208 15 -20 13 -8 -10 59 -16 47 -32
109 -36 138 -3 29 -11 53 -16 53 -6 0 -7 -17 -3 -42z"/>
<path d="M1050 393 c0 -30 24 -83 46 -104 l27 -24 -27 46 c-14 25 -26 53 -26
62 0 9 -4 19 -10 22 -5 3 -10 3 -10 -2z"/>
<path d="M3270 345 c-123 -33 -172 -51 -290 -107 -93 -45 -115 -61 -194 -140
-48 -49 -85 -92 -82 -95 4 -4 13 3 22 15 9 13 30 29 47 36 18 8 26 15 19 15
-15 1 52 71 69 71 6 0 9 -7 5 -15 -7 -20 2 -19 47 4 35 18 36 20 15 23 -22 4
-22 5 7 17 17 7 56 18 87 24 31 6 54 15 51 20 -3 5 4 6 18 2 13 -4 27 -12 30
-18 5 -6 30 -6 75 0 58 9 62 11 27 12 -23 0 -44 5 -47 10 -3 4 -18 6 -32 3
-22 -4 -26 -2 -21 11 8 22 -4 29 -22 13 -9 -7 -54 -26 -101 -41 -47 -15 -92
-30 -100 -33 -12 -4 -12 -2 -3 8 12 13 153 75 240 107 28 10 63 13 100 10 32
-3 110 -8 173 -11 74 -4 143 -15 194 -30 72 -21 82 -27 128 -82 118 -138 178
-195 178 -169 0 2 -18 32 -40 66 -22 34 -40 66 -40 71 0 18 18 6 46 -33 16
-22 37 -50 47 -62 l18 -22 -12 25 c-26 55 -72 111 -102 127 -21 10 -27 18 -18
21 8 3 -19 17 -60 32 -41 15 -126 53 -190 84 -134 65 -156 67 -289 31z m127
-12 c3 -7 -17 -12 -57 -15 -74 -4 -85 3 -33 19 45 14 85 13 90 -4z m361 -132
c3 -8 -1 -12 -9 -9 -7 2 -15 10 -17 17 -3 8 1 12 9 9 7 -2 15 -10 17 -17z"/>
<path d="M929 312 c-12 -11 -18 -21 -13 -24 5 -3 17 5 27 18 21 29 17 30 -14
6z"/>
<path d="M3047 175 c-27 -7 -56 -20 -65 -29 -15 -15 -15 -16 6 -16 12 0 21 5
20 11 -5 21 19 20 25 -1 5 -21 24 -24 67 -10 23 7 23 8 -9 9 -58 2 -27 13 76
27 90 12 92 13 24 8 -40 -2 -79 0 -85 5 -7 5 -30 4 -59 -4z"/>
<path d="M3298 183 c7 -3 16 -2 19 1 4 3 -2 6 -13 5 -11 0 -14 -3 -6 -6z"/>
<path d="M780 167 c0 -15 40 -160 45 -165 8 -8 -2 64 -16 120 -5 20 -14 40
-19 43 -6 3 -10 4 -10 2z"/>
<path d="M3158 143 c18 -2 45 -2 60 0 15 2 0 4 -33 4 -33 0 -45 -2 -27 -4z"/>
<path d="M674 71 c10 -65 28 -89 20 -26 -3 28 -11 55 -16 60 -7 7 -8 -4 -4
-34z"/>
<path d="M1130 72 c0 -5 7 -15 15 -22 8 -7 15 -21 15 -31 0 -14 7 -19 26 -19
l25 0 -21 27 c-25 32 -60 58 -60 45z"/>
<path d="M1296 15 c-11 -8 -16 -15 -10 -15 5 0 18 7 28 15 11 8 16 15 10 15
-5 0 -18 -7 -28 -15z"/>
<path d="M1410 16 c0 -9 5 -16 10 -16 6 0 10 4 10 9 0 6 -4 13 -10 16 -5 3
-10 -1 -10 -9z"/>
<path d="M2760 15 c-7 -9 -8 -15 -2 -15 5 0 12 7 16 15 7 19 2 19 -14 0z"/>
<path d="M1335 10 c-13 -6 -15 -9 -5 -9 8 0 22 4 30 9 18 12 2 12 -25 0z"/>
</g>
</svg>
